<svg width="24" height="24" viewBox="0 0 24 24" fill="none" xmlns="http://www.w3.org/2000/svg">
<circle cx="12" cy="12" r="12" fill="#D72822"/>
<ellipse cx="15.0126" cy="9.3891" rx="1.35565" ry="1.35565" fill="white"/>
<circle cx="8.98748" cy="9.3891" r="1.35565" fill="white"/>
<path fill-rule="evenodd" clip-rule="evenodd" d="M7.00382 17.4547C6.73753 17.7722 6.26434 17.8151 5.94531 17.5499C5.62544 17.284 5.58168 16.8091 5.84757 16.4893C5.84757 16.4893 5.83706 16.5013 5.86057 16.4739C5.86685 16.4666 5.87506 16.4571 5.88522 16.4456C5.90554 16.4227 5.93364 16.3917 5.96952 16.3538C6.04123 16.278 6.14421 16.1745 6.27832 16.0526C6.54623 15.809 6.94043 15.4903 7.45977 15.1731C8.50091 14.5374 10.0462 13.908 12.0714 13.908C14.0981 13.908 15.6115 14.5383 16.6227 15.18C17.1263 15.4997 17.5042 15.8212 17.7598 16.0674C17.8878 16.1906 17.9856 16.2955 18.0537 16.3725C18.0877 16.411 18.1144 16.4426 18.1338 16.4661C18.1651 16.5042 18.2423 16.6021 18.1701 16.5115C18.4237 16.8411 18.3621 17.314 18.0324 17.5676C17.7038 17.8205 17.2328 17.76 16.9786 17.433C16.9781 17.4324 16.9776 17.4317 16.9771 17.4311L16.9785 17.4329C16.9776 17.4318 16.9751 17.4286 16.9708 17.4234C16.9624 17.4131 16.9472 17.3951 16.9254 17.3705C16.8818 17.3212 16.8117 17.2455 16.7148 17.1523C16.5209 16.9654 16.2217 16.7096 15.8155 16.4518C15.007 15.9387 13.7696 15.4142 12.0714 15.4142C10.3718 15.4142 9.09478 15.9396 8.24478 16.4587C7.81856 16.7189 7.49999 16.9776 7.29153 17.1671C7.18745 17.2617 7.11134 17.3386 7.06351 17.3892C7.03961 17.4144 7.02283 17.433 7.0132 17.4439C7.00839 17.4493 7.00537 17.4528 7.00415 17.4543C7.00402 17.4544 7.00382 17.4547 7.00382 17.4547ZM16.9771 17.4311L16.9767 17.4305L16.9771 17.4311Z" fill="white"/>
</svg>
