<svg width="27" height="24" viewBox="0 0 27 24" fill="none" xmlns="http://www.w3.org/2000/svg">
<path d="M16.6453 4.18798C16.0072 4.08245 15.4212 4.447 15.2997 5.00462C15.1782 5.56224 15.5867 6.10666 16.2075 6.21579C18.0764 6.54196 19.5195 7.83707 19.8853 9.51592V9.51712C19.9894 10.0004 20.4646 10.3517 21.012 10.3517C21.0854 10.3517 21.1588 10.3457 21.2336 10.3338C21.8543 10.2222 22.2628 9.67901 22.1413 9.12019C21.5953 6.61271 19.4394 4.67604 16.6453 4.18798Z" fill="#ffffff"/>
<path d="M16.5618 0.00951572C16.2628 -0.0288579 15.9624 0.0502877 15.7235 0.220571C15.4778 0.393252 15.3243 0.642681 15.2909 0.922089C15.2202 1.4869 15.6754 1.99775 16.3055 2.06131C20.6507 2.49541 24.0281 5.52573 24.5167 9.42785C24.5821 9.95069 25.072 10.3452 25.6567 10.3452C25.7008 10.3452 25.7435 10.3428 25.7875 10.338C26.0932 10.308 26.3655 10.1725 26.5578 9.95669C26.7487 9.74083 26.8354 9.47222 26.8007 9.19761C26.192 4.32895 21.983 0.550344 16.5618 0.00951572Z" fill="#ffffff"/>
<path fill-rule="evenodd" clip-rule="evenodd" d="M12.1064 13.1668C17.4535 17.9524 18.6665 12.416 22.071 15.4617C25.3532 18.3993 27.2397 18.9878 23.0812 22.7096C22.5603 23.0844 19.2507 27.5931 7.6198 17.1835C-4.01254 6.77275 1.02085 3.80688 1.43958 3.34069C5.60817 -0.391434 6.25425 1.30721 9.53646 4.24475C12.941 7.29175 6.75932 8.38125 12.1064 13.1668Z" fill="#ffffff"/>
</svg>
