<svg width="24" height="24" viewBox="0 0 24 24" fill="none" xmlns="http://www.w3.org/2000/svg">
<circle cx="12" cy="12" r="12" fill="#2F9F41"/>
<ellipse cx="15.0126" cy="9.3891" rx="1.35565" ry="1.35565" fill="white"/>
<circle cx="8.98748" cy="9.3891" r="1.35565" fill="white"/>
<path fill-rule="evenodd" clip-rule="evenodd" d="M7.16182 14.4564C6.93886 14.1073 6.4755 14.0037 6.12493 14.2251C5.77327 14.4473 5.66828 14.9125 5.89043 15.2641C5.89173 15.2634 5.89086 15.2648 5.89086 15.2648L5.89133 15.2655L5.89239 15.2672L5.89499 15.2713C5.89693 15.2743 5.89929 15.2779 5.90209 15.2822C5.90767 15.2907 5.91496 15.3017 5.92398 15.3149C5.94202 15.3414 5.96698 15.3771 5.99903 15.4206C6.06308 15.5076 6.15568 15.6263 6.27804 15.766C6.52239 16.045 6.88791 16.4106 7.38445 16.7747C8.38312 17.5069 9.90411 18.2259 12 18.2259C14.0958 18.2259 15.6168 17.5069 16.6155 16.7747C17.112 16.4106 17.4775 16.045 17.7219 15.766C17.8442 15.6263 17.9368 15.5076 18.0009 15.4206C18.0329 15.3771 18.0579 15.3414 18.0759 15.3149C18.085 15.3017 18.0923 15.2907 18.0978 15.2822C18.1189 15.2501 18.1095 15.2641 18.1095 15.2641C18.3316 14.9125 18.2267 14.4473 17.875 14.2251C17.5244 14.0037 17.0611 14.1073 16.8381 14.4564L16.838 14.4566C16.8371 14.4579 16.8347 14.4616 16.8307 14.4675C16.8227 14.4792 16.8085 14.4996 16.788 14.5275C16.7469 14.5833 16.6808 14.6686 16.5887 14.7736C16.4044 14.9842 16.1186 15.2713 15.7249 15.5599C14.943 16.1332 13.7276 16.7196 12 16.7196C10.2723 16.7196 9.05694 16.1332 8.27508 15.5599C7.88135 15.2713 7.59557 14.9842 7.41118 14.7736C7.31917 14.6686 7.25305 14.5833 7.21197 14.5275C7.19145 14.4996 7.17725 14.4792 7.16925 14.4675C7.16526 14.4616 7.16282 14.4579 7.16193 14.4566L7.16182 14.4564Z" fill="white"/>
</svg>
