<svg width="174" height="33" viewBox="0 0 174 33" fill="none" xmlns="http://www.w3.org/2000/svg">
<path d="M22.016 5.696C24.192 5.696 25.9413 6.368 27.264 7.712C28.608 9.03467 29.28 10.8907 29.28 13.28V23.68H24.8V13.888C24.8 12.5013 24.448 11.4453 23.744 10.72C23.04 9.97333 22.08 9.6 20.864 9.6C19.648 9.6 18.6773 9.97333 17.952 10.72C17.248 11.4453 16.896 12.5013 16.896 13.888V23.68H12.416V13.888C12.416 12.5013 12.064 11.4453 11.36 10.72C10.656 9.97333 9.696 9.6 8.48 9.6C7.24267 9.6 6.26133 9.97333 5.536 10.72C4.832 11.4453 4.48 12.5013 4.48 13.888V23.68H0V5.952H4.48V8.096C5.056 7.34933 5.792 6.76267 6.688 6.336C7.60533 5.90933 8.608 5.696 9.696 5.696C11.0827 5.696 12.32 5.99467 13.408 6.592C14.496 7.168 15.3387 8 15.936 9.088C16.512 8.064 17.344 7.24267 18.432 6.624C19.5413 6.00533 20.736 5.696 22.016 5.696Z" fill="black"/>
<path d="M41.2113 23.968C39.5046 23.968 37.9686 23.5947 36.6032 22.848C35.2379 22.08 34.1606 21.0027 33.3713 19.616C32.6032 18.2293 32.2192 16.6293 32.2192 14.816C32.2192 13.0027 32.6139 11.4027 33.4032 10.016C34.2139 8.62933 35.3126 7.56267 36.6992 6.816C38.0859 6.048 39.6326 5.664 41.3392 5.664C43.0459 5.664 44.5926 6.048 45.9792 6.816C47.3659 7.56267 48.4539 8.62933 49.2432 10.016C50.0539 11.4027 50.4593 13.0027 50.4593 14.816C50.4593 16.6293 50.0433 18.2293 49.2113 19.616C48.4006 21.0027 47.2912 22.08 45.8832 22.848C44.4966 23.5947 42.9393 23.968 41.2113 23.968ZM41.2113 20.064C42.0219 20.064 42.7793 19.872 43.4832 19.488C44.2086 19.0827 44.7846 18.4853 45.2113 17.696C45.6379 16.9067 45.8512 15.9467 45.8512 14.816C45.8512 13.1307 45.4032 11.84 44.5072 10.944C43.6326 10.0267 42.5552 9.568 41.2752 9.568C39.9953 9.568 38.9179 10.0267 38.0432 10.944C37.1899 11.84 36.7632 13.1307 36.7632 14.816C36.7632 16.5013 37.1792 17.8027 38.0112 18.72C38.8646 19.616 39.9313 20.064 41.2113 20.064Z" fill="black"/>
<path d="M61.4255 23.968C59.7188 23.968 58.1828 23.5947 56.8175 22.848C55.4522 22.08 54.3748 21.0027 53.5855 19.616C52.8175 18.2293 52.4335 16.6293 52.4335 14.816C52.4335 13.0027 52.8282 11.4027 53.6175 10.016C54.4282 8.62933 55.5268 7.56267 56.9135 6.816C58.3002 6.048 59.8468 5.664 61.5535 5.664C63.2602 5.664 64.8068 6.048 66.1935 6.816C67.5802 7.56267 68.6682 8.62933 69.4575 10.016C70.2682 11.4027 70.6735 13.0027 70.6735 14.816C70.6735 16.6293 70.2575 18.2293 69.4255 19.616C68.6148 21.0027 67.5055 22.08 66.0975 22.848C64.7108 23.5947 63.1535 23.968 61.4255 23.968ZM61.4255 20.064C62.2362 20.064 62.9935 19.872 63.6975 19.488C64.4228 19.0827 64.9988 18.4853 65.4255 17.696C65.8522 16.9067 66.0655 15.9467 66.0655 14.816C66.0655 13.1307 65.6175 11.84 64.7215 10.944C63.8468 10.0267 62.7695 9.568 61.4895 9.568C60.2095 9.568 59.1322 10.0267 58.2575 10.944C57.4042 11.84 56.9775 13.1307 56.9775 14.816C56.9775 16.5013 57.3935 17.8027 58.2255 18.72C59.0788 19.616 60.1455 20.064 61.4255 20.064Z" fill="black"/>
<path d="M72.6158 14.752C72.6158 12.96 72.9678 11.3707 73.6718 9.984C74.3971 8.59733 75.3784 7.53067 76.6158 6.784C77.8531 6.03733 79.2291 5.664 80.7438 5.664C81.8958 5.664 82.9944 5.92 84.0398 6.432C85.0851 6.92267 85.9171 7.584 86.5358 8.416V0H91.0798V23.68H86.5358V21.056C85.9811 21.9307 85.2024 22.6347 84.1998 23.168C83.1971 23.7013 82.0344 23.968 80.7118 23.968C79.2184 23.968 77.8531 23.584 76.6158 22.816C75.3784 22.048 74.3971 20.9707 73.6718 19.584C72.9678 18.176 72.6158 16.5653 72.6158 14.752ZM86.5678 14.816C86.5678 13.728 86.3544 12.8 85.9278 12.032C85.5011 11.2427 84.9251 10.6453 84.1998 10.24C83.4744 9.81333 82.6958 9.6 81.8638 9.6C81.0318 9.6 80.2638 9.80267 79.5598 10.208C78.8558 10.6133 78.2798 11.2107 77.8318 12C77.4051 12.768 77.1918 13.6853 77.1918 14.752C77.1918 15.8187 77.4051 16.7573 77.8318 17.568C78.2798 18.3573 78.8558 18.9653 79.5598 19.392C80.2851 19.8187 81.0531 20.032 81.8638 20.032C82.6958 20.032 83.4744 19.8293 84.1998 19.424C84.9251 18.9973 85.5011 18.4 85.9278 17.632C86.3544 16.8427 86.5678 15.904 86.5678 14.816Z" fill="black"/>
<path d="M98.1033 8.64V6.048H94.4553V32.064H98.1033V21.12C99.2553 22.496 101.335 23.968 104.247 23.968C108.887 23.968 112.535 20.224 112.535 14.784C112.535 9.344 108.887 5.76 104.247 5.76C101.367 5.76 99.2233 7.168 98.1033 8.64ZM108.823 14.784C108.823 18.592 106.199 20.8 103.447 20.8C100.727 20.8 98.1033 18.656 98.1033 14.848C98.1033 11.072 100.727 8.928 103.447 8.928C106.199 8.928 108.823 10.976 108.823 14.784Z" fill="#2F9F41"/>
<path d="M132.751 14.848C132.751 9.312 128.783 5.76 123.759 5.76C118.735 5.76 114.767 9.312 114.767 14.848C114.767 20.384 118.575 23.968 123.599 23.968C128.655 23.968 132.751 20.384 132.751 14.848ZM118.479 14.848C118.479 10.848 120.943 8.928 123.695 8.928C126.415 8.928 129.007 10.848 129.007 14.848C129.007 18.848 126.319 20.8 123.599 20.8C120.847 20.8 118.479 18.848 118.479 14.848Z" fill="#2F9F41"/>
<path d="M156.923 23.68H160.539V13.28C160.539 8.352 157.435 5.76 153.307 5.76C151.195 5.76 149.243 6.624 148.059 8.064V6.048H144.411V23.68H148.059V13.824C148.059 10.592 149.819 8.928 152.507 8.928C155.163 8.928 156.923 10.592 156.923 13.824V23.68Z" fill="#2F9F41"/>
<path d="M165.576 18.784C165.576 22.368 167.528 23.68 170.664 23.68H173.544V20.64H171.304C169.768 20.64 169.256 20.096 169.256 18.784V9.024H173.544V6.048H169.256V1.664H165.576V6.048H163.496V9.024H165.576V18.784Z" fill="#2F9F41"/>
<path d="M139.92 23.68H136.272V7.04717C136.781 7.3785 137.389 7.57099 138.042 7.57099C138.742 7.57099 139.39 7.34991 139.92 6.9738V23.68Z" fill="#2F9F41"/>
<path d="M140.432 2.37604C140.432 3.68804 139.408 4.71204 138.128 4.71204C136.816 4.71204 135.792 3.68804 135.792 2.37604C135.792 1.06404 136.816 0.0400391 138.128 0.0400391C139.408 0.0400391 140.432 1.06404 140.432 2.37604Z" fill="#2F9F41"/>
</svg>
